/* XPM */
static char *result[] = {
/* columns rows colors chars-per-pixel */
"64 64 3 1 ",
"  c #FFC90E",
". c #C3C3C3",
"X c white",
/* pixels */
"XXXXXXXXXXXXXXXXXXXXXXXXXXXXXXXXXXXXXXXXXXXXXXXXXXXXXXXXXXXXXXXX",
"XX............................................................XX",
"XX............................................................XX",
"XX..XXXXXXXXXXXXXXXXXXXXXXXXXXXXXXXXXXXXXXXXXXXXXXXXXXXXXXXX..XX",
"XX..XXXXXXXXXXXXXXXXXXXXXXXXXXXXXXXXXXXXXXXXXXXXXXXXXXXXXXXX..XX",
"XX..XXXXXXXXXXXXXXXXXXXXXXXXXXXXXXXXXXXXXXXXXXXXXXXXXXXXXXXX..XX",
"XX..XXXXXXXXXXXXXXXXXXXXXXXXXXXXXXXXXXXXXXXXXXXXXXXXXXXXXXXX..XX",
"XX..XXXXXXXXXXXXXXXXXXXXXXXXXXXXXXXXXXXXXXXXXXXXXXXXXXXXXXXX..XX",
"XX..XXXXXXXXXXXXXXXXXXXXXXXXXXXXXXXXXXXXXXXXXXXXXXXXXXXXXXXX..XX",
"XX..XXXXXXXXXXXXXXXXXXXXXXXXXXXXXXXXXXXXXXXXXXXXXXXXXXXXXXXX..XX",
"XX..XXXXXXXXXXXXXXXXXXXXXXXXXXXXXXXXXXXXXXXXXXXXXXXXXXXXXXXX..XX",
"XX..XXXXXXXXXXXXXXXXXXXXXXXXXXXXXXXXXXXXXXXXXXXXXXXXXXXXXXXX..XX",
"XX..XXXXXXXXXXXXXXXXXXXXXXXXXXXXXXXXXXXXXXXXXXXXXXXXXXXXXXXX..XX",
"XX..XXXXXXXXXXXXXXXXXXX                   XXXXXXXXXXXXXXXXXX..XX",
"XX..XXXXXXXXXXXXXXXXXXXXXXXXXXXXXXXXXXXXXXXXXXXXXXXXXXXXXXXX..XX",
"XX..XXXXXXXXXXXXXXXXX X                   X XXXXXXXXXXXXXXXX..XX",
"XX..XXXXXXXXXXXXXXXXX X                   X XXXXXXXXXXXXXXXX..XX",
"XX..XXXXXXXXXXXXXXXXX X  XXXXXXXXXXXXXXX  X XXXXXXXXXXXXXXXX..XX",
"XX..XXXXXXXXXXXXXXXXX X  X             X  X XXXXXXXXXXXXXXXX..XX",
"XX..XXXXXXXXXXXXXXXXX X  X             X  X XXXXXXXXXXXXXXXX..XX",
"XX..XXXXXXXXXXXXXXXXX X  X             X  X XXXXXXXXXXXXXXXX..XX",
"XX..XXXXXXXXXXXXXXXXX X  X             X  X XXXXXXXXXXXXXXXX..XX",
"XX..XXXXXXXXXXXXXXXXX X  X             X  X XXXXXXXXXXXXXXXX..XX",
"XX..XXXXXXXXXXXXXXXXX X  X             X  X XXXXXXXXXXXXXXXX..XX",
"XX..XXXXXXXXXXXXXXXXX X  X             X  X XXXXXXXXXXXXXXXX..XX",
"XX..XXXXXXXXXXXXXXXXX X  X             X  X XXXXXXXXXXXXXXXX..XX",
"XX..XXXXXXXXXXXXXXXXX X  X     XXX     X  X XXXXXXXXXXXXXXXX..XX",
"XX..XXXXXXXXXXXXXXXXX X  X     XXX     X  X XXXXXXXXXXXXXXXX..XX",
"XX..XXXXXXXXXXXXXXXXX X  X   XX   XX   X  X XXXXXXXXXXXXXXXX..XX",
"XX..XXXXXXXXXXXXXXXXX X  X   XX   XX   X  X XXXXXXXXXXXXXXXX..XX",
"XX..XXXXXXXXXXXXXXXXX X  X   XX        X  X XXXXXXXXXXXXXXXX..XX",
"XX..XXXXXXXXXXXXXXXXX X  X   XX        X  X XXXXXXXXXXXXXXXX..XX",
"XX..XXXXXXXXXXXXXXXXX X  X   XX   XX   X  X XXXXXXXXXXXXXXXX..XX",
"XX..XXXXXXXXXXXXXXXXX X  X   XX   XX   X  X XXXXXXXXXXXXXXXX..XX",
"XX..XXXXXXXXXXXXXXXXX X  X     XXX     X  X XXXXXXXXXXXXXXXX..XX",
"XX..XXXXXXXXXXXXXXXXX X  X     XXX     X  X XXXXXXXXXXXXXXXX..XX",
"XX..XXXXXXXXXXXXXXXXX X  X             X  X XXXXXXXXXXXXXXXX..XX",
"XX..XXXXXXXXXXXXXXXXX X  X             X  X XXXXXXXXXXXXXXXX..XX",
"XX..XXXXXXXXXXXXXXXXX X  X             X  X XXXXXXXXXXXXXXXX..XX",
"XX..XXXXXXXXXXXXXXXXX X  X             X  X XXXXXXXXXXXXXXXX..XX",
"XX..XXXXXXXXXXXXXXXXX X  X             X  X XXXXXXXXXXXXXXXX..XX",
"XX..XXXXXXXXXXXXXXXXX X  X             X  X XXXXXXXXXXXXXXXX..XX",
"XX..XXXXXXXXXXXXXXXXX X  X             X  X XXXXXXXXXXXXXXXX..XX",
"XX..XXXXXXXXXXXXXXXXX X  XXXXXXXXXXXXXXX  X XXXXXXXXXXXXXXXX..XX",
"XX..XXXXXXXXXXXXXXXXX X                   X XXXXXXXXXXXXXXXX..XX",
"XX..XXXXXXXXXXXXXXXXX X                   X XXXXXXXXXXXXXXXX..XX",
"XX..XXXXXXXXXXXXXXXXXXXXXXXXXXXXXXXXXXXXXXXXXXXXXXXXXXXXXXXX..XX",
"XX..XXXXXXXXXXXXXXXXXXX                   XXXXXXXXXXXXXXXXXX..XX",
"XX..XXXXXXXXXXXXXXXXXXXXXXXXXXXXXXXXXXXXXXXXXXXXXXXXXXXXXXXX..XX",
"XX..XXXXXXXXXXXXXXXXXXXXXXXXXXXXXXXXXXXXXXXXXXXXXXXXXXXXXXXX..XX",
"XX..XXXXXXXXXXXXXXXXXXXXXXXXXXXXXXXXXXXXXXXXXXXXXXXXXXXXXXXX..XX",
"XX..XXXXXXXXXXXXXXXXXXXXXXXXXXXXXXXXXXXXXXXXXXXXXXXXXXXXXXXX..XX",
"XX..XXXXXXXXXXXXXXXXXXXXXXXXXXXXXXXXXXXXXXXXXXXXXXXXXXXXXXXX..XX",
"XX..XXXXXXXXXXXXXXXXXXXXXXXXXXXXXXXXXXXXXXXXXXXXXXXXXXXXXXXX..XX",
"XX..XXXXXXXXXXXXXXXXXXXXXXXXXXXXXXXXXXXXXXXXXXXXXXXXXXXXXXXX..XX",
"XX..XXXXXXXXXXXXXXXXXXXXXXXXXXXXXXXXXXXXXXXXXXXXXXXXXXXXXXXX..XX",
"XX..XXXXXXXXXXXXXXXXXXXXXXXXXXXXXXXXXXXXXXXXXXXXXXXXXXXXXXXX..XX",
"XX..XXXXXXXXXXXXXXXXXXXXXXXXXXXXXXXXXXXXXXXXXXXXXXXXXXXXXXXX..XX",
"XX..XXXXXXXXXXXXXXXXXXXXXXXXXXXXXXXXXXXXXXXXXXXXXXXXXXXXXXXX..XX",
"XX..XXXXXXXXXXXXXXXXXXXXXXXXXXXXXXXXXXXXXXXXXXXXXXXXXXXXXXXX..XX",
"XX............................................................XX",
"XX............................................................XX",
"XXXXXXXXXXXXXXXXXXXXXXXXXXXXXXXXXXXXXXXXXXXXXXXXXXXXXXXXXXXXXXXX",
"XXXXXXXXXXXXXXXXXXXXXXXXXXXXXXXXXXXXXXXXXXXXXXXXXXXXXXXXXXXXXXXX"
};
