/* XPM */
static char *result[] = {
/* columns rows colors chars-per-pixel */
"64 64 6 1 ",
"  c gray50",
". c #B97A57",
"X c #FFC90E",
"o c #DBA88C",
"O c #C8BFE7",
"+ c white",
/* pixels */
"++++++++++++++++++++++++++++++++++++++++++++++++++++++++++++++++",
"++++++++++++++++++++++++++++++++++++++++++++++++++++++++++++++++",
"++++++++++++++++++++++++++++++++++++++++++++++++++++++++++++++++",
"+++++++++..............................................+++++++++",
"+++++++++..............................................+++++++++",
"+++++++++..............................................+++++++++",
"+++++++++..............................................+++++++++",
"+++++++++..............................................+++++++++",
"+++++++++..............................................+++++++++",
"+++++++++..............................................+++++++++",
"+++++++++..............................................+++++++++",
"+++++++++..............................................+++++++++",
"+++++++++..............................................+++++++++",
"+++++++++..............................................+++++++++",
"+++++++++..............................................+++++++++",
"+++++++++..............................................+++++++++",
"+++++++++..............................................+++++++++",
"+++++++++..............................................+++++++++",
"+++++++++...........ooooooooooooooooooooooooo..........+++++++++",
"+++++++++...........ooooooooooooooooooooooooo..........+++++++++",
"+++++++++...........ooOOOOOOOOOOOOOOOOOOOOooo..........+++++++++",
"+++++++++...........ooOOOOOOOOOOOOOOOOOOOOooo..........+++++++++",
"+++++++++...........ooOOOOOOOOOOOOOOOOOOOOooo..........+++++++++",
"+++++++++...........ooOOOOOOOOOOOOOOOOOOOOooo..........+++++++++",
"+++++++++...........ooOOOOOOOOOOOOOOOOOOOOooo..........+++++++++",
"+++++++++...........ooOOOOOOOOOOOOOOOOOOOOooo..........+++++++++",
"+++++++++...........ooOOOOOOOOOOOOOOOOOOOOooo..........+++++++++",
"+++++++++...........ooOOOOOOOOOOOOOOOOOOOOooo..........+++++++++",
"+++++++++...........ooOOOOOOOOOOOOOOOOOOOOooo..........+++++++++",
"+++++++++...........ooOOOOOOOOOOOOOOOOOOOOooo..........+++++++++",
"+++++++++...........ooOOOOOOOOOOOOOOOOOOOOooo..........+++++++++",
"+++++++++...........ooOOOOOOOOOOOOOOOOOOOOooo..........+++++++++",
"+++++++++...........ooooooooooooooooooooooooo..........+++++++++",
"+++++++++...........ooooooooooooooooooooooooo..........+++++++++",
"+++++++++..............................................+++++++++",
"+++++++++..............................................+++++++++",
"+++++++++..............................................+++++++++",
"+++++++++..............................................+++++++++",
"+++++++++..............................................+++++++++",
"+++++++++..............................................+++++++++",
"+++++++++..............................................+++++++++",
"+++++++++..............................................+++++++++",
"+++++++++...........XXXX..    .........................+++++++++",
"+++++++++...........XXXX..    .........................+++++++++",
"+++++++++...........XXXX..    .........................+++++++++",
"+++++++++...........XXXX..    .........................+++++++++",
"+++++++++..............................................+++++++++",
"+++++++++..............................................+++++++++",
"+++++++++..............................................+++++++++",
"+++++++++..............................................+++++++++",
"+++++++++..............................................+++++++++",
"+++++++++..............................................+++++++++",
"+++++++++..............................................+++++++++",
"+++++++++..............................................+++++++++",
"+++++++++..............................................+++++++++",
"+++++++++..............................................+++++++++",
"+++++++++..............................................+++++++++",
"+++++++++..............................................+++++++++",
"+++++++++..............................................+++++++++",
"+++++++++..............................................+++++++++",
"+++++++++..............................................+++++++++",
"+++++++++..............................................+++++++++",
"+++++++++..............................................+++++++++",
"+++++++++..............................................+++++++++"
};
