/* XPM */
static char *result[] = {
/* columns rows colors chars-per-pixel */
"64 64 2 1 ",
"  c #C3C3C3",
". c white",
/* pixels */
"................................................................",
"..                                                            ..",
"..                                                            ..",
"..  ........................................................  ..",
"..  ........................................................  ..",
"..  ........................................................  ..",
"..  ........................................................  ..",
"..  ........................................................  ..",
"..  ........................................................  ..",
"..  ........................................................  ..",
"..  ........................................................  ..",
"..  ........................................................  ..",
"..  ........................................................  ..",
"..  ........................................................  ..",
"..  ........................................................  ..",
"..  ........................................................  ..",
"..  ........................................................  ..",
"..  ........................................................  ..",
"..  ........................................................  ..",
"..  ........................................................  ..",
"..  ........................................................  ..",
"..  ........................................................  ..",
"..  ........................................................  ..",
"..  ........................................................  ..",
"..  ........................................................  ..",
"..  ........................................................  ..",
"..  ........................................................  ..",
"..  ........................................................  ..",
"..  ........................................................  ..",
"..  ........................................................  ..",
"..  ........................................................  ..",
"..  ........................................................  ..",
"..  ........................................................  ..",
"..  ........................................................  ..",
"..  ........................................................  ..",
"..  ........................................................  ..",
"..  ........................................................  ..",
"..  ........................................................  ..",
"..  ........................................................  ..",
"..  ........................................................  ..",
"..  ........................................................  ..",
"..  ........................................................  ..",
"..  ........................................................  ..",
"..  ........................................................  ..",
"..  ........................................................  ..",
"..  ........................................................  ..",
"..  ........................................................  ..",
"..  ........................................................  ..",
"..  ........................................................  ..",
"..  ........................................................  ..",
"..  ........................................................  ..",
"..  ........................................................  ..",
"..  ........................................................  ..",
"..  ........................................................  ..",
"..  ........................................................  ..",
"..  ........................................................  ..",
"..  ........................................................  ..",
"..  ........................................................  ..",
"..  ........................................................  ..",
"..  ........................................................  ..",
"..                                                            ..",
"..                                                            ..",
"................................................................",
"................................................................"
};
