/* XPM */
static char *result[] = {
/* columns rows colors chars-per-pixel */
"64 64 4 1 ",
"  c black",
". c #FFF200",
"X c #C3C3C3",
"o c white",
/* pixels */
"oooooooooooooooooooooooooooooooooooooooooooooooooooooooooooooooo",
"ooXXXXXXXXXXXXXXXXXXXXXXXXXXXXXXXXXXXXXXXXXXXXXXXXXXXXXXXXXXXXoo",
"ooXXXXXXXXXXXXXXXXXXXXXXXXXXXXXXXXXXXXXXXXXXXXXXXXXXXXXXXXXXXXoo",
"ooXXooooooooooooooooooooooooooooooooooooooooooooooooooooooooXXoo",
"ooXXooooooooooooooooooooooo..........oooooooooooooooooooooooXXoo",
"ooXXooooooooooooooooooo..................oooooooooooooooooooXXoo",
"ooXXooooooooooooooooo......................oooooooooooooooooXXoo",
"ooXXooooooooooooooo..........................oooooooooooooooXXoo",
"ooXXooooooooooooo..............................oooooooooooooXXoo",
"ooXXoooooooooooo................................ooooooooooooXXoo",
"ooXXooooooooooo..................................oooooooooooXXoo",
"ooXXoooooooooo....................................ooooooooooXXoo",
"ooXXooooooooo......................................oooooooooXXoo",
"ooXXoooooooo........................................ooooooooXXoo",
"ooXXooooooo..........................................oooooooXXoo",
"ooXXoooooo............................................ooooooXXoo",
"ooXXooooo..............................................oooooXXoo",
"ooXXooooo..........oooo..................oooo..........oooooXXoo",
"ooXXoooo.........oooooooo..............oooooooo.........ooooXXoo",
"ooXXoooo.........ooo  ooo..............ooo  ooo.........ooooXXoo",
"ooXXooo.........ooo    ooo............ooo    ooo.........oooXXoo",
"ooXXooo.........oo      oo............oo      oo.........oooXXoo",
"ooXXoo..........oo      oo............oo      oo..........ooXXoo",
"ooXXoo..........ooo    ooo............ooo    ooo..........ooXXoo",
"ooXXoo...........ooo  ooo..............ooo  ooo...........ooXXoo",
"ooXXoo...........oooooooo..............oooooooo...........ooXXoo",
"ooXXo..............oooo..................oooo..............oXXoo",
"ooXXo......................................................oXXoo",
"ooXXo......................................................oXXoo",
"ooXXo......................................................oXXoo",
"ooXXo......................oooo..oooo......................oXXoo",
"ooXXo......................oooo  oooo......................oXXoo",
"ooXXo........................oo  oo........................oXXoo",
"ooXXo.......................  oooo  .......................oXXoo",
"ooXXo.......................  oooo  .......................oXXoo",
"ooXXo......................................................oXXoo",
"ooXXo......................................................oXXoo",
"ooXXo......................................................oXXoo",
"ooXXoo....................................................ooXXoo",
"ooXXoo....................................................ooXXoo",
"ooXXoo....................................................ooXXoo",
"ooXXoo....................................................ooXXoo",
"ooXXooo..................................................oooXXoo",
"ooXXooo..................................................oooXXoo",
"ooXXoooo................................................ooooXXoo",
"ooXXoooo...................ooooooooooo..................ooooXXoo",
"ooXXooooo.............oooooooo     oooooooo............oooooXXoo",
"ooXXooooo...........ooooooo           ooooooo..........oooooXXoo",
"ooXXoooooo..........ooooo               ooooo.........ooooooXXoo",
"ooXXooooooo.........ooooooo           ooooooo........oooooooXXoo",
"ooXXoooooooo..........oooooooo     oooooooo.........ooooooooXXoo",
"ooXXooooooooo..............ooooooooooo.............oooooooooXXoo",
"ooXXoooooooooo....................................ooooooooooXXoo",
"ooXXooooooooooo..................................oooooooooooXXoo",
"ooXXoooooooooooo................................ooooooooooooXXoo",
"ooXXooooooooooooo..............................oooooooooooooXXoo",
"ooXXooooooooooooooo..........................oooooooooooooooXXoo",
"ooXXooooooooooooooooo......................oooooooooooooooooXXoo",
"ooXXooooooooooooooooooo..................oooooooooooooooooooXXoo",
"ooXXooooooooooooooooooooooo..........oooooooooooooooooooooooXXoo",
"ooXXXXXXXXXXXXXXXXXXXXXXXXXXXXXXXXXXXXXXXXXXXXXXXXXXXXXXXXXXXXoo",
"ooXXXXXXXXXXXXXXXXXXXXXXXXXXXXXXXXXXXXXXXXXXXXXXXXXXXXXXXXXXXXoo",
"oooooooooooooooooooooooooooooooooooooooooooooooooooooooooooooooo",
"oooooooooooooooooooooooooooooooooooooooooooooooooooooooooooooooo"
};
